<mxfile host="app.diagrams.net" agent="Mozilla/5.0 (Windows NT 10.0; Win64; x64) AppleWebKit/537.36 (KHTML, like Gecko) Chrome/129.0.0.0 Safari/537.36" version="24.7.17">
  <diagram name="Trang-1" id="kZZ9gPXHDQ_fHRd_Qj__">
    <mxGraphModel dx="2271" dy="853" grid="1" gridSize="10" guides="1" tooltips="1" connect="1" arrows="1" fold="1" page="1" pageScale="1" pageWidth="827" pageHeight="1169" math="0" shadow="0">
      <root>
        <mxCell id="0" />
        <mxCell id="1" parent="0" />
        <mxCell id="yxOmx04Fco7m7iyCl5P5-79" value="" style="rounded=1;whiteSpace=wrap;html=1;" vertex="1" parent="1">
          <mxGeometry x="837" y="670" width="120" height="60" as="geometry" />
        </mxCell>
        <mxCell id="yxOmx04Fco7m7iyCl5P5-75" value="" style="rounded=1;whiteSpace=wrap;html=1;" vertex="1" parent="1">
          <mxGeometry x="-110" y="670" width="200" height="60" as="geometry" />
        </mxCell>
        <mxCell id="yxOmx04Fco7m7iyCl5P5-41" value="" style="rounded=1;whiteSpace=wrap;html=1;" vertex="1" parent="1">
          <mxGeometry x="835.5" y="555" width="120" height="60" as="geometry" />
        </mxCell>
        <mxCell id="yxOmx04Fco7m7iyCl5P5-42" value="" style="rounded=1;whiteSpace=wrap;html=1;" vertex="1" parent="1">
          <mxGeometry x="831.25" y="450" width="120" height="60" as="geometry" />
        </mxCell>
        <mxCell id="yxOmx04Fco7m7iyCl5P5-40" value="" style="rounded=1;whiteSpace=wrap;html=1;" vertex="1" parent="1">
          <mxGeometry x="347.5" y="555" width="120" height="60" as="geometry" />
        </mxCell>
        <mxCell id="yxOmx04Fco7m7iyCl5P5-39" value="" style="rounded=1;whiteSpace=wrap;html=1;" vertex="1" parent="1">
          <mxGeometry x="315" y="440" width="170" height="60" as="geometry" />
        </mxCell>
        <mxCell id="yxOmx04Fco7m7iyCl5P5-38" value="" style="rounded=1;whiteSpace=wrap;html=1;" vertex="1" parent="1">
          <mxGeometry x="816.5" y="340" width="160" height="60" as="geometry" />
        </mxCell>
        <mxCell id="yxOmx04Fco7m7iyCl5P5-37" value="" style="rounded=1;whiteSpace=wrap;html=1;" vertex="1" parent="1">
          <mxGeometry x="325" y="340" width="145" height="60" as="geometry" />
        </mxCell>
        <mxCell id="yxOmx04Fco7m7iyCl5P5-36" value="" style="rounded=1;whiteSpace=wrap;html=1;" vertex="1" parent="1">
          <mxGeometry x="833" y="250" width="120" height="60" as="geometry" />
        </mxCell>
        <mxCell id="yxOmx04Fco7m7iyCl5P5-35" value="" style="rounded=1;whiteSpace=wrap;html=1;" vertex="1" parent="1">
          <mxGeometry x="331" y="250" width="120" height="60" as="geometry" />
        </mxCell>
        <mxCell id="yxOmx04Fco7m7iyCl5P5-34" value="" style="rounded=1;whiteSpace=wrap;html=1;" vertex="1" parent="1">
          <mxGeometry x="816.5" y="170" width="180" height="60" as="geometry" />
        </mxCell>
        <mxCell id="yxOmx04Fco7m7iyCl5P5-33" value="" style="rounded=0;whiteSpace=wrap;html=1;" vertex="1" parent="1">
          <mxGeometry x="843" y="60" width="120" height="60" as="geometry" />
        </mxCell>
        <mxCell id="yxOmx04Fco7m7iyCl5P5-32" value="" style="rounded=0;whiteSpace=wrap;html=1;" vertex="1" parent="1">
          <mxGeometry x="335" y="70" width="120" height="60" as="geometry" />
        </mxCell>
        <mxCell id="yxOmx04Fco7m7iyCl5P5-31" value="" style="rounded=0;whiteSpace=wrap;html=1;" vertex="1" parent="1">
          <mxGeometry x="-100" y="70" width="120" height="60" as="geometry" />
        </mxCell>
        <mxCell id="yxOmx04Fco7m7iyCl5P5-30" value="" style="rounded=1;whiteSpace=wrap;html=1;" vertex="1" parent="1">
          <mxGeometry x="-130" y="555" width="210" height="60" as="geometry" />
        </mxCell>
        <mxCell id="yxOmx04Fco7m7iyCl5P5-29" value="" style="rounded=1;whiteSpace=wrap;html=1;" vertex="1" parent="1">
          <mxGeometry x="315" y="170" width="170" height="60" as="geometry" />
        </mxCell>
        <mxCell id="yxOmx04Fco7m7iyCl5P5-27" value="" style="rounded=1;whiteSpace=wrap;html=1;" vertex="1" parent="1">
          <mxGeometry x="-90" y="440" width="120" height="60" as="geometry" />
        </mxCell>
        <mxCell id="yxOmx04Fco7m7iyCl5P5-26" value="" style="rounded=1;whiteSpace=wrap;html=1;" vertex="1" parent="1">
          <mxGeometry x="-100" y="340" width="120" height="60" as="geometry" />
        </mxCell>
        <mxCell id="yxOmx04Fco7m7iyCl5P5-25" value="" style="rounded=1;whiteSpace=wrap;html=1;" vertex="1" parent="1">
          <mxGeometry x="-100" y="250" width="120" height="60" as="geometry" />
        </mxCell>
        <mxCell id="yxOmx04Fco7m7iyCl5P5-24" value="" style="rounded=1;whiteSpace=wrap;html=1;" vertex="1" parent="1">
          <mxGeometry x="-100" y="170" width="120" height="60" as="geometry" />
        </mxCell>
        <mxCell id="yxOmx04Fco7m7iyCl5P5-4" value="Đăng ký thành viên" style="text;align=center;verticalAlign=middle;rounded=0;fontStyle=0;fontColor=default;labelBackgroundColor=none;labelBorderColor=none;textShadow=0;whiteSpace=wrap;html=1;" vertex="1" parent="1">
          <mxGeometry x="-70" y="185" width="60" height="30" as="geometry" />
        </mxCell>
        <mxCell id="yxOmx04Fco7m7iyCl5P5-5" value=" Khách hàng  " style="text;fontStyle=0;fontColor=default;labelBackgroundColor=none;labelBorderColor=none;textShadow=0;whiteSpace=wrap;html=1;" vertex="1" parent="1">
          <mxGeometry x="-90" y="80" width="130" height="40" as="geometry" />
        </mxCell>
        <mxCell id="yxOmx04Fco7m7iyCl5P5-6" value="Yêu cầu dịch vụ" style="text;fontColor=default;labelBackgroundColor=none;labelBorderColor=none;textShadow=0;whiteSpace=wrap;html=1;" vertex="1" parent="1">
          <mxGeometry x="-90" y="270" width="150" height="40" as="geometry" />
        </mxCell>
        <mxCell id="yxOmx04Fco7m7iyCl5P5-8" value="Yêu cầu máy tính" style="text;fontColor=default;labelBackgroundColor=none;labelBorderColor=none;textShadow=0;whiteSpace=wrap;html=1;" vertex="1" parent="1">
          <mxGeometry x="-90" y="360" width="160" height="40" as="geometry" />
        </mxCell>
        <mxCell id="yxOmx04Fco7m7iyCl5P5-9" value="Nạp tiền" style="text;fontColor=default;labelBackgroundColor=none;labelBorderColor=none;textShadow=0;whiteSpace=wrap;html=1;" vertex="1" parent="1">
          <mxGeometry x="-60" y="460" width="100" height="40" as="geometry" />
        </mxCell>
        <mxCell id="yxOmx04Fco7m7iyCl5P5-10" value="Kết thúc phiên &amp;amp; thanh toán" style="text;fontColor=default;whiteSpace=wrap;html=1;" vertex="1" parent="1">
          <mxGeometry x="-100" y="575" width="170" height="40" as="geometry" />
        </mxCell>
        <mxCell id="yxOmx04Fco7m7iyCl5P5-11" value="Xử lý thanh toán" style="text;fontColor=default;labelBackgroundColor=none;labelBorderColor=none;textShadow=0;whiteSpace=wrap;html=1;" vertex="1" parent="1">
          <mxGeometry x="361" y="575" width="105" height="20" as="geometry" />
        </mxCell>
        <mxCell id="yxOmx04Fco7m7iyCl5P5-12" value="Cập nhật số dư tài khoản" style="text;fontColor=default;labelBackgroundColor=none;labelBorderColor=none;textShadow=0;whiteSpace=wrap;html=1;" vertex="1" parent="1">
          <mxGeometry x="331" y="460" width="149" height="30" as="geometry" />
        </mxCell>
        <mxCell id="yxOmx04Fco7m7iyCl5P5-13" value="Kiểm tra máy trống" style="text;fontColor=default;labelBackgroundColor=none;labelBorderColor=none;textShadow=0;whiteSpace=wrap;html=1;" vertex="1" parent="1">
          <mxGeometry x="345" y="360" width="115" height="30" as="geometry" />
        </mxCell>
        <mxCell id="yxOmx04Fco7m7iyCl5P5-14" value="Xác nhận dịch vụ" style="text;fontColor=default;labelBackgroundColor=none;labelBorderColor=none;textShadow=0;whiteSpace=wrap;html=1;" vertex="1" parent="1">
          <mxGeometry x="345" y="265" width="115" height="30" as="geometry" />
        </mxCell>
        <mxCell id="yxOmx04Fco7m7iyCl5P5-15" value="Lưu thông tin thành viên" style="text;fontColor=default;labelBackgroundColor=none;labelBorderColor=none;textShadow=0;whiteSpace=wrap;html=1;" vertex="1" parent="1">
          <mxGeometry x="332.5" y="185" width="135" height="30" as="geometry" />
        </mxCell>
        <mxCell id="yxOmx04Fco7m7iyCl5P5-16" value="Hệ thống Quán Net" style="text;fontColor=default;labelBackgroundColor=none;labelBorderColor=none;textShadow=0;whiteSpace=wrap;html=1;" vertex="1" parent="1">
          <mxGeometry x="340" y="80" width="160" height="40" as="geometry" />
        </mxCell>
        <mxCell id="yxOmx04Fco7m7iyCl5P5-18" value="Quản lý" style="text;fontColor=default;labelBackgroundColor=none;labelBorderColor=none;textShadow=0;whiteSpace=wrap;html=1;" vertex="1" parent="1">
          <mxGeometry x="865" y="80" width="90" height="40" as="geometry" />
        </mxCell>
        <mxCell id="yxOmx04Fco7m7iyCl5P5-19" value="Quản lý thông tin khách hàng" style="text;fontColor=default;whiteSpace=wrap;html=1;" vertex="1" parent="1">
          <mxGeometry x="826.5" y="190" width="163" height="20" as="geometry" />
        </mxCell>
        <mxCell id="yxOmx04Fco7m7iyCl5P5-20" value="Quản lý dịch vụ" style="text;fontColor=default;whiteSpace=wrap;html=1;" vertex="1" parent="1">
          <mxGeometry x="850" y="270" width="90" height="20" as="geometry" />
        </mxCell>
        <mxCell id="yxOmx04Fco7m7iyCl5P5-21" value="Giám sát tình trạng máy&lt;br&gt;&amp;nbsp; &amp;nbsp; &amp;nbsp; &amp;nbsp; &amp;nbsp;(bật/tắt)" style="text;fontColor=default;whiteSpace=wrap;html=1;" vertex="1" parent="1">
          <mxGeometry x="833" y="350" width="143.5" height="20" as="geometry" />
        </mxCell>
        <mxCell id="yxOmx04Fco7m7iyCl5P5-22" value="Xem báo cáo" style="text;fontColor=default;whiteSpace=wrap;html=1;" vertex="1" parent="1">
          <mxGeometry x="848" y="460" width="120" height="40" as="geometry" />
        </mxCell>
        <mxCell id="yxOmx04Fco7m7iyCl5P5-23" value="Tạo báo cáo" style="text;fontColor=default;labelBackgroundColor=none;labelBorderColor=none;textShadow=0;whiteSpace=wrap;html=1;" vertex="1" parent="1">
          <mxGeometry x="854.75" y="575" width="120" height="40" as="geometry" />
        </mxCell>
        <mxCell id="yxOmx04Fco7m7iyCl5P5-43" value="" style="endArrow=classic;startArrow=classic;html=1;rounded=0;" edge="1" parent="1">
          <mxGeometry width="50" height="50" relative="1" as="geometry">
            <mxPoint x="30" y="205" as="sourcePoint" />
            <mxPoint x="300" y="205" as="targetPoint" />
          </mxGeometry>
        </mxCell>
        <mxCell id="yxOmx04Fco7m7iyCl5P5-47" value="" style="endArrow=classic;startArrow=classic;html=1;rounded=0;" edge="1" parent="1">
          <mxGeometry width="50" height="50" relative="1" as="geometry">
            <mxPoint x="30" y="279.09000000000003" as="sourcePoint" />
            <mxPoint x="300" y="279.09000000000003" as="targetPoint" />
          </mxGeometry>
        </mxCell>
        <mxCell id="yxOmx04Fco7m7iyCl5P5-48" value="" style="endArrow=classic;startArrow=classic;html=1;rounded=0;" edge="1" parent="1">
          <mxGeometry width="50" height="50" relative="1" as="geometry">
            <mxPoint x="30" y="369.09000000000003" as="sourcePoint" />
            <mxPoint x="300" y="369.09000000000003" as="targetPoint" />
          </mxGeometry>
        </mxCell>
        <mxCell id="yxOmx04Fco7m7iyCl5P5-49" value="" style="endArrow=classic;startArrow=classic;html=1;rounded=0;" edge="1" parent="1">
          <mxGeometry width="50" height="50" relative="1" as="geometry">
            <mxPoint x="40" y="469.09000000000003" as="sourcePoint" />
            <mxPoint x="310" y="469.09000000000003" as="targetPoint" />
          </mxGeometry>
        </mxCell>
        <mxCell id="yxOmx04Fco7m7iyCl5P5-50" value="" style="endArrow=none;html=1;rounded=0;exitX=0.5;exitY=0;exitDx=0;exitDy=0;" edge="1" parent="1" source="yxOmx04Fco7m7iyCl5P5-24">
          <mxGeometry width="50" height="50" relative="1" as="geometry">
            <mxPoint x="-90" y="180" as="sourcePoint" />
            <mxPoint x="-40" y="130" as="targetPoint" />
          </mxGeometry>
        </mxCell>
        <mxCell id="yxOmx04Fco7m7iyCl5P5-52" value="" style="endArrow=none;html=1;rounded=0;exitX=0.5;exitY=0;exitDx=0;exitDy=0;" edge="1" parent="1" source="yxOmx04Fco7m7iyCl5P5-25">
          <mxGeometry width="50" height="50" relative="1" as="geometry">
            <mxPoint x="-90" y="280" as="sourcePoint" />
            <mxPoint x="-40" y="230" as="targetPoint" />
          </mxGeometry>
        </mxCell>
        <mxCell id="yxOmx04Fco7m7iyCl5P5-53" value="" style="endArrow=none;html=1;rounded=0;exitX=0.5;exitY=0;exitDx=0;exitDy=0;entryX=0.335;entryY=0.956;entryDx=0;entryDy=0;entryPerimeter=0;" edge="1" parent="1" source="yxOmx04Fco7m7iyCl5P5-26" target="yxOmx04Fco7m7iyCl5P5-6">
          <mxGeometry width="50" height="50" relative="1" as="geometry">
            <mxPoint x="-90" y="370" as="sourcePoint" />
            <mxPoint x="-40" y="320" as="targetPoint" />
          </mxGeometry>
        </mxCell>
        <mxCell id="yxOmx04Fco7m7iyCl5P5-54" value="" style="endArrow=none;html=1;rounded=0;exitX=0.41;exitY=0.044;exitDx=0;exitDy=0;exitPerimeter=0;" edge="1" parent="1" source="yxOmx04Fco7m7iyCl5P5-27">
          <mxGeometry width="50" height="50" relative="1" as="geometry">
            <mxPoint x="-90" y="450" as="sourcePoint" />
            <mxPoint x="-40" y="400" as="targetPoint" />
          </mxGeometry>
        </mxCell>
        <mxCell id="yxOmx04Fco7m7iyCl5P5-55" value="" style="endArrow=none;html=1;rounded=0;exitX=0.415;exitY=0.024;exitDx=0;exitDy=0;exitPerimeter=0;" edge="1" parent="1" source="yxOmx04Fco7m7iyCl5P5-30">
          <mxGeometry width="50" height="50" relative="1" as="geometry">
            <mxPoint x="-40" y="550" as="sourcePoint" />
            <mxPoint x="-40" y="500" as="targetPoint" />
          </mxGeometry>
        </mxCell>
        <mxCell id="yxOmx04Fco7m7iyCl5P5-56" value="" style="endArrow=classic;startArrow=classic;html=1;rounded=0;" edge="1" parent="1">
          <mxGeometry width="50" height="50" relative="1" as="geometry">
            <mxPoint x="451" y="280.0000000000001" as="sourcePoint" />
            <mxPoint x="801" y="280" as="targetPoint" />
          </mxGeometry>
        </mxCell>
        <mxCell id="yxOmx04Fco7m7iyCl5P5-57" value="" style="endArrow=classic;startArrow=classic;html=1;rounded=0;" edge="1" parent="1">
          <mxGeometry width="50" height="50" relative="1" as="geometry">
            <mxPoint x="480" y="375" as="sourcePoint" />
            <mxPoint x="800" y="375" as="targetPoint" />
          </mxGeometry>
        </mxCell>
        <mxCell id="yxOmx04Fco7m7iyCl5P5-58" value="" style="endArrow=classic;startArrow=classic;html=1;rounded=0;" edge="1" parent="1">
          <mxGeometry width="50" height="50" relative="1" as="geometry">
            <mxPoint x="510" y="200" as="sourcePoint" />
            <mxPoint x="800" y="200" as="targetPoint" />
          </mxGeometry>
        </mxCell>
        <mxCell id="yxOmx04Fco7m7iyCl5P5-59" value="Yêu cầu" style="text;html=1;align=center;verticalAlign=middle;whiteSpace=wrap;rounded=0;" vertex="1" parent="1">
          <mxGeometry x="130" y="180" width="60" height="30" as="geometry" />
        </mxCell>
        <mxCell id="yxOmx04Fco7m7iyCl5P5-60" value="Yêu cầu" style="text;html=1;align=center;verticalAlign=middle;whiteSpace=wrap;rounded=0;" vertex="1" parent="1">
          <mxGeometry x="130" y="250" width="60" height="30" as="geometry" />
        </mxCell>
        <mxCell id="yxOmx04Fco7m7iyCl5P5-61" value="Yêu cầu" style="text;html=1;align=center;verticalAlign=middle;whiteSpace=wrap;rounded=0;" vertex="1" parent="1">
          <mxGeometry x="130" y="340" width="60" height="30" as="geometry" />
        </mxCell>
        <mxCell id="yxOmx04Fco7m7iyCl5P5-62" value="Yêu cầu" style="text;html=1;align=center;verticalAlign=middle;whiteSpace=wrap;rounded=0;" vertex="1" parent="1">
          <mxGeometry x="130" y="440" width="60" height="30" as="geometry" />
        </mxCell>
        <mxCell id="yxOmx04Fco7m7iyCl5P5-63" value="Phản hồi" style="text;html=1;align=center;verticalAlign=middle;whiteSpace=wrap;rounded=0;" vertex="1" parent="1">
          <mxGeometry x="130" y="210" width="60" height="30" as="geometry" />
        </mxCell>
        <mxCell id="yxOmx04Fco7m7iyCl5P5-64" value="Phản hồi" style="text;html=1;align=center;verticalAlign=middle;whiteSpace=wrap;rounded=0;" vertex="1" parent="1">
          <mxGeometry x="130" y="280" width="60" height="30" as="geometry" />
        </mxCell>
        <mxCell id="yxOmx04Fco7m7iyCl5P5-65" value="Phản hồi" style="text;html=1;align=center;verticalAlign=middle;whiteSpace=wrap;rounded=0;" vertex="1" parent="1">
          <mxGeometry x="130" y="370" width="60" height="30" as="geometry" />
        </mxCell>
        <mxCell id="yxOmx04Fco7m7iyCl5P5-66" value="Phản hồi" style="text;html=1;align=center;verticalAlign=middle;whiteSpace=wrap;rounded=0;" vertex="1" parent="1">
          <mxGeometry x="130" y="480" width="60" height="30" as="geometry" />
        </mxCell>
        <mxCell id="yxOmx04Fco7m7iyCl5P5-67" value="" style="endArrow=classic;startArrow=classic;html=1;rounded=0;" edge="1" parent="1">
          <mxGeometry width="50" height="50" relative="1" as="geometry">
            <mxPoint x="90" y="590" as="sourcePoint" />
            <mxPoint x="330" y="590" as="targetPoint" />
          </mxGeometry>
        </mxCell>
        <mxCell id="yxOmx04Fco7m7iyCl5P5-69" value="" style="endArrow=classic;startArrow=classic;html=1;rounded=0;" edge="1" parent="1">
          <mxGeometry width="50" height="50" relative="1" as="geometry">
            <mxPoint x="490" y="590" as="sourcePoint" />
            <mxPoint x="810" y="590" as="targetPoint" />
          </mxGeometry>
        </mxCell>
        <mxCell id="yxOmx04Fco7m7iyCl5P5-70" value="" style="endArrow=classic;startArrow=classic;html=1;rounded=0;" edge="1" parent="1">
          <mxGeometry width="50" height="50" relative="1" as="geometry">
            <mxPoint x="510" y="480" as="sourcePoint" />
            <mxPoint x="820" y="480" as="targetPoint" />
          </mxGeometry>
        </mxCell>
        <mxCell id="yxOmx04Fco7m7iyCl5P5-71" value="Thêm, xóa, sửa dịch vụ" style="text;whiteSpace=wrap;html=1;" vertex="1" parent="1">
          <mxGeometry x="560" y="255" width="160" height="45" as="geometry" />
        </mxCell>
        <mxCell id="yxOmx04Fco7m7iyCl5P5-73" value="doanh thu, tài khoản" style="text;whiteSpace=wrap;html=1;" vertex="1" parent="1">
          <mxGeometry x="590" y="455" width="140" height="40" as="geometry" />
        </mxCell>
        <mxCell id="yxOmx04Fco7m7iyCl5P5-74" value="Gửi phản hồi dịch vụ" style="text;html=1;align=center;verticalAlign=middle;whiteSpace=wrap;rounded=0;" vertex="1" parent="1">
          <mxGeometry x="-95" y="685" width="160" height="30" as="geometry" />
        </mxCell>
        <mxCell id="yxOmx04Fco7m7iyCl5P5-76" value="" style="rounded=1;whiteSpace=wrap;html=1;" vertex="1" parent="1">
          <mxGeometry x="354" y="670" width="120" height="60" as="geometry" />
        </mxCell>
        <mxCell id="yxOmx04Fco7m7iyCl5P5-77" value="Lưu trữ và tổng hợp phản hồi" style="text;html=1;align=center;verticalAlign=middle;whiteSpace=wrap;rounded=0;" vertex="1" parent="1">
          <mxGeometry x="364.5" y="685" width="95.5" height="30" as="geometry" />
        </mxCell>
        <mxCell id="yxOmx04Fco7m7iyCl5P5-78" value="Tiếp nhận phản hồi" style="text;html=1;align=center;verticalAlign=middle;whiteSpace=wrap;rounded=0;" vertex="1" parent="1">
          <mxGeometry x="861.25" y="685" width="60" height="30" as="geometry" />
        </mxCell>
      </root>
    </mxGraphModel>
  </diagram>
</mxfile>
